HIERARCHY
ROOT Hips
{
	OFFSET	0.00	0.00	0.00
	CHANNELS 6 Xposition Yposition Zposition Zrotation Xrotation Yrotation
	JOINT LeftUpLeg
	{
		OFFSET	 0.126116	-0.065224	 0.014019
		CHANNELS 3 Zrotation Xrotation Yrotation
		JOINT LeftLeg
		{
			OFFSET	 0.000000	 0.569914	 0.000000
			CHANNELS 3 Zrotation Xrotation Yrotation
			JOINT LeftFoot
			{
				OFFSET	 0.000000	 0.544423	 0.000000
				CHANNELS 3 Zrotation Xrotation Yrotation
				JOINT LeftToeBase
				{
					OFFSET	 0.000000	 0.207117	 0.000000
					CHANNELS 3 Zrotation Xrotation Yrotation
					End Site
					{
						OFFSET	 0.000000	 0.207117	 0.000000
					}
				}
			}
		}
	}
	JOINT RightUpLeg
	{
		OFFSET	-0.124023	-0.065224	 0.008373
		CHANNELS 3 Zrotation Xrotation Yrotation
		JOINT RightLeg
		{
			OFFSET	 0.000000	 0.570047	 0.000000
			CHANNELS 3 Zrotation Xrotation Yrotation
			JOINT RightFoot
			{
				OFFSET	 0.000000	 0.544354	 0.000000
				CHANNELS 3 Zrotation Xrotation Yrotation
				JOINT RightToeBase
				{
					OFFSET	 0.000000	 0.207540	 0.000000
					CHANNELS 3 Zrotation Xrotation Yrotation
					End Site
					{
						OFFSET	 0.000000	 0.207540	 0.000000
					}
				}
			}
		}
	}
	JOINT Spine
	{
		OFFSET	 0.000184	 0.117403	 0.007763
		CHANNELS 3 Zrotation Xrotation Yrotation
		JOINT Spine1
		{
			OFFSET	 0.000000	 0.137269	 0.000000
			CHANNELS 3 Zrotation Xrotation Yrotation
			JOINT Spine2
			{
				OFFSET	 0.000000	 0.156879	 0.000000
				CHANNELS 3 Zrotation Xrotation Yrotation
				JOINT LeftShoulder
				{
					OFFSET	 0.080501	 0.160143	 0.002496
					CHANNELS 3 Zrotation Xrotation Yrotation
					JOINT LeftArm
					{
						OFFSET	 0.000000	 0.164363	 0.000000
						CHANNELS 3 Zrotation Xrotation Yrotation
						JOINT LeftForeArm
						{
							OFFSET	 0.000000	 0.364576	 0.000000
							CHANNELS 3 Zrotation Xrotation Yrotation
							JOINT LeftHand
							{
								OFFSET	 0.000000	 0.360812	 0.000000
								CHANNELS 3 Zrotation Xrotation Yrotation
								JOINT LeftHandIndex1
								{
									OFFSET	 0.000000	 0.086006	 0.000000
									CHANNELS 3 Zrotation Xrotation Yrotation
									JOINT LeftHandIndex2
									{
										OFFSET	 0.000000	 0.047237	 0.000000
										CHANNELS 3 Zrotation Xrotation Yrotation
										JOINT LeftHandIndex3
										{
											OFFSET	-0.004284	 0.038165	 0.000551
											CHANNELS 3 Zrotation Xrotation Yrotation
											End Site
											{
												OFFSET	-0.004284	 0.038165	 0.000551
											}
										}
									}
								}
							}
						}
					}
				}
				JOINT Neck
				{
					OFFSET	 0.000000	 0.176489	 0.000000
					CHANNELS 3 Zrotation Xrotation Yrotation
					JOINT Head
					{
						OFFSET	 0.000000	 0.077941	 0.001747
						CHANNELS 3 Zrotation Xrotation Yrotation
						End Site
						{
							OFFSET	 0.000000	 0.077941	 0.001747
						}
					}
				}
				JOINT RightShoulder
				{
					OFFSET	-0.080363	 0.159706	-0.000306
					CHANNELS 3 Zrotation Xrotation Yrotation
					JOINT RightArm
					{
						OFFSET	 0.000000	 0.164196	 0.000000
						CHANNELS 3 Zrotation Xrotation Yrotation
						JOINT RightForeArm
						{
							OFFSET	 0.000000	 0.365611	 0.000000
							CHANNELS 3 Zrotation Xrotation Yrotation
							JOINT RightHand
							{
								OFFSET	 0.000000	 0.360648	 0.000000
								CHANNELS 3 Zrotation Xrotation Yrotation
								JOINT RightHandIndex1
								{
									OFFSET	 0.000000	 0.069977	 0.000000
									CHANNELS 3 Zrotation Xrotation Yrotation
									JOINT RightHandIndex2
									{
										OFFSET	 0.000000	 0.052305	 0.000000
										CHANNELS 3 Zrotation Xrotation Yrotation
										JOINT RightHandIndex3
										{
											OFFSET	 0.009002	 0.042196	 0.000782
											CHANNELS 3 Zrotation Xrotation Yrotation
											End Site
											{
												OFFSET	 0.009002	 0.042196	 0.000782
											}
										}
									}
								}
							}
						}
					}
				}
			}
		}
	}
}
MOTION
Frames:    9
Frame Time: 0.03333334
-0.191443	 1.215647	-0.284611	 11.363210	-3.248854	-161.473300	-172.503100	 29.924510	 12.578390	 13.190160	-40.599800	 12.902260	-0.347705	 72.409530	-8.263780	 1.615766	 32.545890	-2.921114	 176.316700	-0.273997	 30.230580	-3.036285	-34.958440	 6.138456	 16.746230	 66.781650	-5.578314	-4.086070	 54.056770	 4.499018	-5.984337	 5.802728	 16.997540	-6.537213	 9.999826	 6.428042	 3.431417	-9.093531	-6.457975	-101.292400	 3.829593	 93.480740	 53.035550	 40.171210	-12.492140	 40.688000	-1.932198	 0.632611	 23.803370	 28.257050	-0.166259	 3.716176	 55.406200	-2.105863	-8.810513	 61.600170	 9.128588	 6.613976	 34.422010	 0.048644	 3.340302	-11.495530	-3.411601	 5.818082	-8.096631	-10.745370	 99.498970	 26.724040	-97.108520	-56.631860	 21.623600	 5.101967	-10.919630	-0.426948	 0.017727	 14.450660	 19.614300	-6.228690	-4.634953	-11.113160	-0.636015	 11.955370	 6.277332	-1.445820	-8.231829	-2.442941	 0.468069
-0.196874	 1.199083	-0.277529	 11.571900	-4.099714	-160.670900	-173.905600	 33.060600	 13.299490	 15.279770	-44.708400	 15.191600	 3.870239	 76.092940	-12.136380	 1.458776	 30.601150	-2.824348	 176.214100	 1.156034	 29.053530	-3.226685	-36.609580	 5.867008	 19.112560	 71.840580	-6.533119	-3.489923	 50.176110	 4.043396	-6.103083	 5.947090	 19.099770	-7.080502	 11.179650	 7.239459	 3.574463	-10.077490	-6.707982	-101.572700	 3.517653	 93.397680	 50.734180	 39.339040	-8.667523	 35.814000	-1.734397	 0.476640	 17.389440	 30.562520	 13.232150	 3.757604	 55.320300	-2.135944	-8.822417	 61.649110	 9.144558	 6.611842	 34.376670	 0.048884	 3.467451	-11.917370	-3.617922	 5.935582	-8.789047	-11.638220	 100.306200	 27.587850	-97.368840	-62.661580	 25.958040	 6.750284	-5.046970	-0.198303	 0.049808	 17.831930	 19.863420	-6.440634	-4.726590	-2.136224	-0.644210	 12.215810	 17.431020	-3.881851	-8.460635	 9.409034	-0.292711
-0.203964	 1.181375	-0.269788	 11.650690	-4.896439	-160.056600	-175.552700	 35.979750	 14.114790	 17.638420	-48.696920	 17.672870	 11.408690	 79.592950	-19.258530	 1.307351	 28.640580	-2.734821	 176.296900	 2.085865	 27.849620	-3.320044	-37.394040	 5.649395	 22.119520	 76.599300	-8.450758	-2.978093	 46.260660	 3.676795	-6.264722	 6.079586	 20.774290	-7.278393	 11.427180	 7.528498	 3.650691	-10.595850	-6.970469	-101.855600	 3.203661	 93.312470	 49.663280	 39.259040	-5.532831	 26.485100	-1.322007	 0.227209	 13.097460	 29.012090	 26.551320	 3.799192	 55.233700	-2.166089	-8.834464	 61.698440	 9.160704	 6.609693	 34.330950	 0.049124	 3.594241	-12.343010	-3.825242	 6.049592	-9.488525	-12.538550	 101.139600	 28.446300	-97.651060	-54.156300	 31.547730	 1.505461	-22.624220	-0.867135	-0.114915	 31.372980	 20.985190	-7.698345	-4.818447	 6.929914	-0.637923	 13.047850	 28.686380	-6.618390	-8.535112	 21.357030	-1.053792
-0.208914	 1.170929	-0.263560	 11.513210	-5.480923	-159.708300	-176.801300	 37.685600	 14.517640	 19.075230	-50.832640	 19.246480	 19.743700	 81.529680	-27.133540	 1.200275	 27.204670	-2.674982	 176.161100	 2.628231	 27.278530	-3.349417	-37.637690	 5.829820	 26.410550	 80.026880	-12.354840	-2.593672	 42.906350	 3.419927	-6.363626	 6.209718	 21.788730	-7.234921	 11.436010	 7.610198	 3.645330	-10.830150	-7.100905	-102.195300	 2.954665	 93.235550	 49.500020	 40.164590	-4.144337	 17.509010	-0.891934	 0.053476	 10.180510	 25.920100	 36.321720	 3.833608	 55.167780	-2.191097	-8.837999	 61.712890	 9.165440	 6.608849	 34.313010	 0.049219	 3.714583	-12.569440	-3.958146	 5.989411	-9.928886	-13.083720	 101.881200	 28.873410	-97.860660	-50.555740	 35.543120	-1.550494	-26.827400	-1.017257	-0.184036	 35.916540	 20.393380	-10.576190	-4.884419	 13.094940	-0.625150	 14.051780	 36.298560	-8.791522	-8.485424	 29.557120	-1.610145
-0.210113	 1.170304	-0.261557	 11.138230	-5.783978	-159.772700	-177.349000	 37.895640	 14.220250	 19.102690	-50.871550	 19.290900	 21.125170	 81.613260	-28.225850	 1.180208	 26.934830	-2.666902	 175.800400	 2.315970	 28.002190	-3.241692	-36.736770	 6.835778	 30.363190	 80.765770	-17.009130	-2.386573	 40.936560	 3.289225	-6.310603	 6.174241	 21.906300	-7.405229	 11.571360	 7.882388	 3.703938	-10.824120	-6.948808	-102.620700	 2.855518	 93.183530	 45.432940	 42.076550	-2.531177	 17.212110	-0.877223	 0.048908	 6.767353	 24.992920	 41.045090	 3.851163	 55.148610	-2.204084	-8.824145	 61.656240	 9.146885	 6.610687	 34.352180	 0.049022	 3.814565	-12.377530	-3.932491	 5.592756	-9.813799	-12.872920	 102.350600	 28.416740	-97.873480	-47.513900	 37.853860	-2.842751	-27.065430	-1.025607	-0.188300	 35.950610	 17.126660	-15.538650	-4.888780	 13.088120	-0.625466	 14.061550	 36.358750	-8.810235	-8.485097	 29.584430	-1.612083
-0.211535	 1.171002	-0.259417	 10.681390	-6.005429	-159.921200	-177.879100	 37.851330	 13.852540	 18.933940	-50.631630	 19.183240	 22.495680	 81.511610	-29.279830	 1.160422	 26.667580	-2.659022	 175.428000	 1.884342	 28.734640	-3.115710	-35.655430	 7.899824	 35.293460	 81.262500	-22.688330	-2.192873	 38.984480	 3.172414	-6.258634	 6.192965	 21.828340	-7.341532	 11.363620	 7.912831	 3.698080	-10.639740	-6.800843	-103.042100	 2.757694	 93.131280	 39.292440	 44.491250	 0.697222	 18.624720	-0.946766	 0.071374	 3.309570	 23.033780	 45.183740	 3.868534	 55.129620	-2.216931	-8.810486	 61.600150	 9.128569	 6.612508	 34.390970	 0.048826	 3.913424	-12.187430	-3.907439	 5.201290	-9.701326	-12.663900	 102.816500	 27.959920	-97.883380	-41.595520	 39.797750	-6.111269	-28.935460	-1.090509	-0.222837	 34.898790	 13.754210	-20.855460	-4.893099	 13.081360	-0.625779	 14.071260	 36.418350	-8.828790	-8.484775	 29.611480	-1.614004
-0.212801	 1.172332	-0.257060	 10.156680	-6.165203	-160.137300	-178.377000	 37.652950	 13.420250	 18.658410	-50.234120	 18.994630	 23.773210	 81.309950	-30.250410	 1.140099	 26.391820	-2.651019	 174.962700	 1.441701	 29.437640	-2.958781	-34.647280	 9.126085	 42.006240	 81.610630	-30.143790	-2.003574	 36.970170	 3.063766	-6.200991	 6.263906	 21.569180	-7.122302	 10.910890	 7.736325	 3.654658	-10.323030	-6.650113	-103.477000	 2.657159	 93.076610	 33.319470	 46.762070	 4.012334	 19.049340	-0.967569	 0.078488	 0.680824	 20.514460	 48.718720	 3.886441	 55.110030	-2.230169	-8.796458	 61.542260	 9.109735	 6.614389	 34.430990	 0.048620	 4.015268	-11.991230	-3.881959	 4.798780	-9.586830	-12.447840	 103.297500	 27.485000	-97.890300	-34.918550	 41.266260	-10.003520	-30.517520	-1.144564	-0.253700	 32.461590	 10.208120	-26.776450	-4.897555	 13.074390	-0.626103	 14.081310	 36.479850	-8.847965	-8.484439	 29.639380	-1.615986
-0.213088	 1.173711	-0.254817	 9.594530	-6.248408	-160.472200	-178.725700	 37.351920	 12.849200	 18.358200	-49.792540	 18.775340	 24.682740	 81.103530	-30.921110	 1.121073	 26.132550	-2.643611	 174.373400	 1.101343	 30.150280	-2.929342	-34.000760	 10.212640	 50.550990	 81.801660	-39.309600	-1.830708	 35.035920	 2.969678	-6.113584	 6.375761	 21.147000	-6.849772	 10.352070	 7.418556	 3.606666	-9.939064	-6.484895	-103.901700	 2.558550	 93.019910	 29.031140	 48.485230	 6.125779	 18.032080	-0.917665	 0.061747	-1.144490	 18.206640	 51.307590	 3.903194	 55.093520	-2.242595	-8.782170	 61.483020	 9.090525	 6.616364	 34.473000	 0.048404	 4.113275	-11.777420	-3.848141	 4.384933	-9.465130	-12.193470	 103.800900	 26.994660	-97.895600	-29.163760	 42.499790	-13.241760	-31.337940	-1.172227	-0.270286	 29.171380	 6.559426	-32.962800	-4.900074	 13.058950	-0.625745	 14.090170	 36.533910	-8.864842	-8.484174	 29.661280	-1.617541
-0.206727	 1.180858	-0.258651	 8.604679	-5.835808	-162.776900	-177.571700	 35.407380	 9.832758	 17.310420	-48.179660	 17.686460	 22.287730	 80.606000	-28.252450	 1.131174	 26.270340	-2.647532	 174.238600	 0.045329	 28.105070	-2.741921	-32.268330	 10.550060	 47.184720	 81.246150	-36.463320	-1.831844	 35.048930	 2.970281	-5.568669	 6.312160	 20.506760	-7.015681	 10.190560	 7.643333	 3.756288	-9.572027	-5.976004	-104.063700	 2.501206	 92.936000	 21.952520	 51.348660	 8.613244	 18.288310	-0.930263	 0.065896	 1.615400	 17.615160	 48.340240	 3.892611	 55.149370	-2.235875	-8.761388	 61.396290	 9.062533	 6.620354	 34.557750	 0.047954	 4.118720	-11.173210	-3.616429	 3.711782	-9.155478	-11.080700	 104.795200	 26.229250	-97.940910	-20.360700	 43.889060	-15.795910	-31.642180	-1.182466	-0.276515	 21.972990	 1.949922	-36.589890	-4.857809	 12.849550	-0.609618	 14.070370	 36.412830	-8.827077	-8.485595	 29.543160	-1.609148
